<svg xmlns="http://www.w3.org/2000/svg" viewBox="0 0 24 24" width="100" height="100">
  <!-- Light Mode (Sun) -->
  <g id="lightmode">
    <circle cx="12" cy="12" r="5" fill="none" stroke="currentColor" stroke-width="2"/>
    <path d="M12 1V3" stroke="currentColor" stroke-width="2"/>
    <path d="M12 21V23" stroke="currentColor" stroke-width="2"/>
    <path d="M4.22 4.22L5.64 5.64" stroke="currentColor" stroke-width="2"/>
    <path d="M18.36 18.36L19.78 19.78" stroke="currentColor" stroke-width="2"/>
    <path d="M1 12H3" stroke="currentColor" stroke-width="2"/>
    <path d="M21 12H23" stroke="currentColor" stroke-width="2"/>
    <path d="M4.22 19.78L5.64 18.36" stroke="currentColor" stroke-width="2"/>
    <path d="M18.36 5.64L19.78 4.22" stroke="currentColor" stroke-width="2"/>
  </g>
  
  <!-- Dark Mode (Moon) -->
  <g id="darkmode" style="display: none;">
    <circle cx="12" cy="12" r="5" fill="none" stroke="currentColor" stroke-width="2"/>
    <path d="M12 1C9.79 1 7.72 1.81 6.3 3.2C4.88 4.59 4 6.77 4 9C4 11.23 4.88 13.41 6.3 14.8C7.72 16.19 9.79 17 12 17C14.21 17 16.28 16.19 17.7 14.8C19.12 13.41 20 11.23 20 9C20 6.77 19.12 4.59 17.7 3.2C16.28 1.81 14.21 1 12 1ZM12 15C10.34 15 9 13.66 9 12C9 10.34 10.34 9 12 9C13.66 9 15 10.34 15 12C15 13.66 13.66 15 12 15Z" fill="currentColor"/>
  </g>
</svg>